<svg width="208" height="61" xmlns="http://www.w3.org/2000/svg"><g fill="#A01D26" fill-rule="evenodd"><path d="M40.558 18.227c3.259 1.415 5.162 4.427 5.162 7.932 0 7.379-8.484 12.299-15.125 12.299-2.519 0-7.068-1.291-8.915-3.012v.798c0 1.046-.614 2.332-1.782 2.332-1.109 0-1.474-1.04-1.661-1.966-.799-4.058-.616-8.79-.616-12.97-.86-.306-1.539-1.046-1.539-2.032 0-1.168.927-2.089 1.908-2.642.37-3.81.616-9.411 1.292-12.974.123-.494.246-.922.676-1.287C15.225 5.746 9.507 7.407 5.326 9.807v.183c.06 1.35-.432 2.395-1.97 2.395-1.475 0-2.949-.857-2.949-2.454 0-1.42 1.167-2.401 2.275-3.017C11.535 2.615 24.508.091 34.347.091c5.043 0 17.155.493 17.155 7.621 0 4.861-7.01 8.854-10.944 10.515m-4.861 1.967c-4.855 1.414-9.405 3.259-14.508 3.751v1.661c0 2.154.122 4.245.307 6.394a2.854 2.854 0 0 1 1.414-.369c2.029 0 2.214.434 2.951 2.154.554 1.168 4.059 1.72 5.228 1.72 4.855 0 11.066-3.628 11.066-9.036 0-3.815-2.829-6.029-6.458-6.275m-.734-17.278c-4.551 0-9.164.556-13.652 1.478.616.247.923.922.923 1.538 0 3.934-.433 7.927-.677 11.866 3.137-.798 6.579-.981 9.837-.981 1.538 0 3.076 0 4.55.242 3.323-1.351 11.93-4.915 11.93-9.096 0-4.491-9.716-5.047-12.911-5.047M69.024 27.637c-1.168 3.747-4.675 8.42-8.979 8.42-3.381 0-4.303-2.829-4.303-5.713 0-1.109.063-2.278.246-3.382-1.168.675-2.273 1.164-3.628.981-.246.429-.676.739-1.168.739-.676 0-1.415-.493-1.415-1.232 0-.365.187-.862.369-1.232-.182-.365-.246-.734-.246-1.168 0-1.78 1.602-7.316 3.815-7.316.858 0 1.474.922 1.474 1.725 0 1.844-1.045 3.628-1.784 5.285.187 0 .31.064.434.064 3.81 0 2.947-4.861 5.594-4.861.922 0 1.475.868 1.475 1.726s-.43 1.351-.986 1.967c-.552.675-1.105 4.673-1.105 5.718 0 1.414.37 3.318 2.153 3.318 4.056 0 4.734-6.7 6.886-6.7.677 0 1.289.552 1.289 1.228 0 .123-.059.31-.121.433"/><path d="M83.106 27.573c-1.726 3.506-6.027 7.257-10.086 7.257-4.242 0-6.702-3.688-6.702-7.626 0-4.057 2.768-9.776 7.377-9.776 2.154 0 3.384 1.598 3.384 3.693 0 3.687-3.69 7.315-7.318 7.438.43 1.84 1.72 3.013 3.628 3.013 3.441 0 5.654-2.89 7.501-5.354.37-.489.49-.675 1.107-.675.737 0 1.291.616 1.291 1.355 0 .246-.061.493-.182.675m-9.9-7.251c-2.153 0-3.383 3.254-3.568 4.915.246.064.493.123.739.123 1.659 0 3.688-1.844 3.688-3.505 0-.429-.306-1.533-.859-1.533"/><path d="M103.579 27.943c-1.169 3.259-4.921 9.41-8.854 9.41-5.78 0-4.245-6.398-5.102-10.026-.065-.305-.188-.739-.616-.739-2.461 0-6.825 8.917-8.484 8.917-.802 0-1.846-.433-1.846-1.414 0-.493.366-1.045.677-1.474.735-.986 1.105-5.29 1.105-6.518 0-1.355-.553-2.765-.553-4.061 0-1.105.861-1.967 1.967-1.967 2.398 0 2.029 5.472 2.029 7.133 1.476-1.661 3.69-3.87 6.088-3.87 5.533 0 1.289 10.638 5.228 10.638 3.564 0 4.978-8.243 7.192-8.243.798 0 1.291.617 1.291 1.415 0 .247-.063.553-.122.799"/><path d="M104.131 27.327c.061 1.598 1.231 4.427 3.134 4.427 3.815 0 5.905-6.211 7.745-6.211.802 0 1.295.803 1.295 1.542 0 .306-.124.612-.246.858-1.662 3.012-5.718 7.316-9.41 7.316-5.467 0-6.147-7.07-6.147-11.131 0-2.332.186-4.609.555-6.946-1.106 0-3.749.123-3.749-1.538 0-1.967 3.135-1.534 4.427-1.474.675-2.336 2.581-7.75 5.47-7.75 2.46 0 2.703 3.633 2.703 5.414 0 .803-.06 1.661-.178 2.459 1.286.06 5.102-.246 5.102 1.538 0 .735-.617 1.351-1.355 1.351h-4.428c-1.228 3.633-3.318 6.581-4.857 10.022l-.061.123zm0-10.081c-.43 2.09-.737 4.244-.737 6.394a63.044 63.044 0 0 0 2.579-6.394h-1.842zm2.582-2.953c.187-.798.31-1.602.31-2.4 0-.617-.064-1.287-.247-1.903a19.448 19.448 0 0 0-2.029 4.303h1.966z"/><path d="M144.838 27.76c-1.296 2.949-5.107 5.039-8.242 5.039a8.553 8.553 0 0 1-2.518-.37c-1.418 2.218-3.509 4.121-6.272 4.121-2.34 0-4.367-1.538-5.289-3.687-1.539 1.661-3.633 3.501-6.029 3.501-2.583 0-4.122-1.534-4.122-4.117 0-2.524 1.849-11.5 5.103-11.5.927 0 1.908.743 1.908 1.724 0 .616-3.501 6.211-3.501 9.223 0 .489.178 1.662.795 1.662 1.725 0 5.107-3.875 5.289-5.536.183-1.907.369-6.576 3.138-6.576 1.167 0 1.537 1.104 1.537 2.09 0 2.09-1.293 3.81-1.293 5.841 0 1.597.923 4.181 2.89 4.181 1.418 0 2.766-1.539 3.446-2.647-.613-.858-.799-1.967-.799-3.012 0-1.598.986-5.778 3.07-5.778 1.601 0 1.844 2.209 1.844 3.382 0 1.41-.243 2.765-.493 4.117.493.25 1.108.305 1.66.305 4.367 0 5.043-3.994 6.704-3.994.741 0 1.351.672 1.351 1.356 0 .242-.059.429-.177.675"/><path d="M157.991 31.448c-1.721 3.259-5.777 5.655-9.466 5.655-4.061 0-7.01-3.318-7.01-7.311 0-5.417 5.166-9.47 10.327-9.47 1.046 0 2.954 0 3.566.981 2.583-.059 3.874 3.628 3.874 5.719a7.14 7.14 0 0 1-.182 1.597c3.198 0 4.057-2.766 5.289-2.766.675 0 1.227.548 1.227 1.232 0 2.948-5.162 4.669-7.625 4.363m-6.947-6.763c0-.493.059-1.045.242-1.474-3.564.182-6.271 2.765-6.271 6.393 0 2.396 1.538 4.732 4.123 4.732 2.272 0 4.613-1.966 5.777-3.869-2.027-1.292-3.871-3.263-3.871-5.782m3.196-1.109c-.43 0-.43.68-.43.986 0 1.351 1.105 2.523 2.214 3.258.058-.37.058-.676.058-1.045 0-.862-.793-3.199-1.842-3.199"/><path d="M178.837 31.448c-1.724 3.259-5.782 5.655-9.474 5.655-4.057 0-7.009-3.318-7.009-7.311 0-5.417 5.165-9.47 10.332-9.47 1.044 0 2.952 0 3.564.981 2.587-.059 3.875 3.628 3.875 5.719 0 .551-.064 1.044-.183 1.597 3.195 0 4.062-2.766 5.289-2.766.672 0 1.228.548 1.228 1.232 0 2.948-5.166 4.669-7.622 4.363m-6.95-6.763c0-.493.058-1.045.246-1.474-3.568.182-6.275 2.765-6.275 6.393 0 2.396 1.538 4.732 4.122 4.732 2.276 0 4.614-1.966 5.781-3.869-2.031-1.292-3.874-3.263-3.874-5.782m3.195-1.109c-.429 0-.429.68-.429.986 0 1.351 1.108 2.523 2.213 3.258.064-.37.064-.676.064-1.045 0-.862-.799-3.199-1.848-3.199"/><path d="M207.119 27.573c-.991 3.199-3.505 7.809-7.445 7.809-2.335 0-4.362-1.721-5.529-3.628-1.539 2.095-4.245 4.673-7.07 4.673-3.017 0-3.998-2.889-3.998-5.408 0-4.368 3.259-13.285 8.607-13.344.306 0 .553 0 .863.059.305-3.012 1.839-12.664 5.838-12.664 2.641 0 3.015 3.998 3.015 5.905 0 5.472-2.582 12.112-4.919 16.968.429 1.475 1.538 4.181 3.381 4.181 3.505 0 3.935-6.454 6.024-6.454.799 0 1.292.676 1.292 1.415 0 .183 0 .365-.059.488m-19.249 5.655c1.787 0 4.183-3.505 5.106-4.915-.553-2.278-.616-4.427-.616-6.763v-.247c-.37-.246-.612-.488-1.046-.488-2.395 0-5.038 7.128-5.038 9.529 0 1.04.243 2.884 1.594 2.884m10.272-24.59c-1.907 3.072-2.647 9.466-2.647 13.035 0 .493.064.921.064 1.351 1.479-3.446 2.826-7.932 2.826-11.684 0-.921-.06-1.843-.243-2.702M21.815 60.5c-4.221 0-8.215-2.336-8.215-6.963 0-4.427 3.713-7.042 7.886-7.042 2.565 0 4.829.89 6.837 2.468l-1.194 1.877c-1.83-1.269-3.334-2.087-5.62-2.087-2.848 0-5.668 1.653-5.668 4.784 0 3.276 3.028 4.7 5.919 4.7 2.168 0 3.947-.634 5.728-1.857l.99 2.063c-2.063 1.419-4.146 2.057-6.663 2.057M38.979 60.5c-4.093 0-7.937-2.541-7.937-6.941v-.356c0-4.45 4.119-6.708 8.137-6.708 4.144 0 8.01 2.468 8.01 6.937 0 4.527-4.044 7.068-8.21 7.068m.178-11.724c-2.875 0-5.849 1.529-5.849 4.761 0 3.176 2.846 4.677 5.696 4.677 2.845 0 5.922-1.524 5.922-4.76 0-3.227-2.899-4.678-5.769-4.678M62.902 58.059c-1.146 1.753-3.61 2.364-5.572 2.364-1.803 0-3.683-.405-5.032-1.675-1.293-1.246-1.371-2.743-1.371-4.445v-7.434h2.263v7.434c0 1.799.178 2.236.584 2.688.838.945 2.542 1.173 3.711 1.173 1.218 0 2.825-.305 3.559-1.373.306-.434.434-.868.434-2.488v-7.434h2.239v7.434c0 2.077-.153 2.743-.815 3.756M78.638 60.045l-8.238-9.79v9.79h-2.236V46.869h2.263l8.211 9.771v-9.771h2.236v13.176zM91.809 49.11v10.935h-2.264V49.11h-4.984v-2.241h12.334v2.241zM111.791 60.045l-3.809-5.395h-4.604v5.395h-2.264V46.869h8.135c2.67 0 5.012.845 5.012 3.892 0 2.237-1.378 3.561-3.532 3.839l3.834 5.445h-2.772zM109.35 49.11h-5.972v3.303h6.1c1.251 0 2.542-.25 2.542-1.752 0-1.118-.539-1.551-2.67-1.551zM124.196 54.116v5.929h-2.236v-5.929l-5.769-7.247h2.848l4.049 5.116 4.04-5.116h2.843zM154.836 60.045v-9.256l-4.983 7.398-5.006-7.398v9.256h-2.241V46.869h2.241l5.006 7.58 5.012-7.58h2.212v13.176zM174.21 60.045l-1.684-3.081h-8.028l-1.63 3.081h-2.541l7.12-13.176h2.241l7.164 13.176h-2.642zm-5.668-10.652l-2.872 5.362h5.743l-2.871-5.362zM190.124 60.045l-3.816-5.395h-4.595v5.395h-2.264V46.869h8.137c2.67 0 5.007.845 5.007 3.892 0 2.237-1.374 3.561-3.537 3.839l3.847 5.445h-2.779zm-2.442-10.935h-5.969v3.303h6.101c1.242 0 2.543-.25 2.543-1.752 0-1.118-.539-1.551-2.675-1.551zM202.509 49.11v10.935h-2.268V49.11h-4.978v-2.241h12.33v2.241z"/></g></svg>