<svg width="348" height="32" viewBox="0 0 348 32" xmlns="http://www.w3.org/2000/svg">
  <g id="Welcome" fill="none" fill-rule="evenodd">
    <g id="Desktop" transform="translate(-59 -75)">
      <g id="Group" transform="translate(58 64)">
        <path d="M12.34 24.55c.45 0 .78.08 1 .24.2.16.3.4.3.75 0 .33-.1.57-.29.73-.2.16-.48.25-.87.25H6.84v4.64c0 1.52.2 2.52.6 3 .39.49 1.06.73 2.02.73.84 0 1.85-.25 3.03-.74 1.18-.49 1.9-.74 2.19-.74a.94.94 0 0 1 .93.96c0 .31-.12.58-.34.8-.23.23-.62.45-1.16.67-.91.36-1.73.62-2.46.79a9.2 9.2 0 0 1-2.05.25c-1.09 0-2-.18-2.74-.52a3.48 3.48 0 0 1-1.64-1.55c-.19-.33-.32-.71-.4-1.16-.08-.44-.12-1.13-.12-2.06v-5.07H2.34c-.4 0-.68-.08-.85-.23-.18-.16-.27-.4-.27-.75 0-.38.12-.64.37-.78.24-.14.75-.2 1.54-.2H4.7v-3.6c0-.4.09-.69.26-.88.17-.19.44-.28.8-.28.4 0 .69.11.85.34.16.24.23.76.23 1.59v2.82h5.5zm8.07 10.12V20.42h-.27c-.63 0-1.06-.07-1.3-.22-.23-.15-.35-.4-.35-.78 0-.33.1-.58.28-.75.2-.17.47-.25.83-.25h2.11c.25 0 .45.05.59.15.14.1.2.24.2.42v6.3a7.64 7.64 0 0 1 2.02-1.4c.66-.3 1.35-.45 2.06-.45 1.4 0 2.5.44 3.3 1.3.8.88 1.21 2.09 1.21 3.63v6.3h.65c.47 0 .8.07 1 .23.2.15.31.4.31.73 0 .33-.1.58-.28.75-.18.16-.46.25-.83.25h-3.7c-.44 0-.73-.07-.89-.22-.15-.14-.22-.4-.22-.78 0-.37.09-.63.28-.76.19-.14.55-.2 1.08-.2h.49v-5.79c0-1.09-.25-1.91-.74-2.48-.5-.57-1.2-.86-2.14-.86-.96 0-1.8.32-2.52.96a3.06 3.06 0 0 0-1.07 2.38v5.79h.48c.56 0 .94.07 1.13.2.2.14.3.4.3.76 0 .38-.08.64-.24.78-.15.15-.44.22-.88.22h-3.7c-.36 0-.63-.09-.81-.25-.18-.17-.28-.42-.28-.75 0-.37.11-.63.33-.76.22-.14.64-.2 1.27-.2h.3zm17.62-3.86a4.23 4.23 0 0 0 1.36 3.1c.83.73 1.96 1.09 3.4 1.09 1.08 0 2.27-.29 3.55-.87a9.6 9.6 0 0 1 2.32-.87c.28 0 .5.09.7.27.18.17.27.39.27.65 0 .27-.1.51-.29.74-.2.22-.5.44-.93.65-.93.46-1.89.8-2.87 1.04-1 .25-1.97.37-2.95.37-2.11 0-3.8-.61-5.07-1.83a6.4 6.4 0 0 1-1.91-4.85c0-2.05.67-3.71 2.02-4.98a7.34 7.34 0 0 1 5.26-1.9c1.95 0 3.58.59 4.86 1.77a5.65 5.65 0 0 1 1.94 4.32c0 .52-.11.86-.33 1.04-.22.18-.8.26-1.77.26h-9.56zM38.1 29h9.06c-.14-1.1-.6-1.99-1.39-2.66-.78-.68-1.74-1.01-2.88-1.01-1.24 0-2.28.32-3.12.97A4.6 4.6 0 0 0 38.1 29z" id="the" fill="#000"/>
        <path d="M234.9 40.19h3.33c.35 0 .62.08.8.25.17.17.26.42.26.75 0 .36-.09.62-.26.77-.17.14-.47.22-.9.22h-6.14c-.37 0-.65-.09-.84-.25-.2-.17-.29-.41-.29-.74 0-.37.12-.63.35-.78.24-.15.68-.22 1.32-.22h.26V25.75h-.26c-.64 0-1.08-.07-1.32-.22-.23-.15-.35-.41-.35-.78 0-.33.1-.57.29-.73.19-.16.47-.25.84-.25h2.11c.28 0 .48.05.6.14.13.1.2.24.2.44v1.34a6.26 6.26 0 0 1 4.56-1.95 6.46 6.46 0 0 1 6.55 6.64c0 1.83-.6 3.33-1.78 4.5a6.19 6.19 0 0 1-4.55 1.78c-.98 0-1.89-.18-2.71-.53a5.5 5.5 0 0 1-2.08-1.5v5.56zm4.3-5.58c1.3 0 2.35-.4 3.18-1.22a4.22 4.22 0 0 0 1.24-3.15 4.2 4.2 0 0 0-4.41-4.35c-1.28 0-2.33.4-3.15 1.22a4.24 4.24 0 0 0-1.22 3.13c0 1.28.4 2.33 1.22 3.15a4.25 4.25 0 0 0 3.15 1.22zm15.02.06h4.61c.37 0 .63.07.8.23.18.15.26.4.26.73 0 .38-.08.64-.24.78-.16.15-.46.22-.9.22h-9.1c-.36 0-.63-.09-.82-.25-.18-.17-.28-.42-.28-.75s.1-.57.29-.73c.19-.15.48-.23.88-.23h2.42v-8.92h-.94c-.9 0-1.46-.07-1.69-.22-.22-.14-.33-.4-.33-.78 0-.33.09-.57.27-.73.18-.16.46-.25.83-.25h3.17c.25 0 .44.05.57.15.13.1.2.24.2.43v2.36a9.7 9.7 0 0 1 2.75-2.46 6.2 6.2 0 0 1 3.09-.8c.82 0 1.5.16 2 .5.51.33.77.76.77 1.29 0 .34-.13.64-.39.9-.25.27-.53.4-.84.4-.21 0-.57-.14-1.08-.42-.5-.28-.95-.43-1.35-.43-.73 0-1.49.26-2.3.78-.8.51-1.68 1.32-2.65 2.44v5.76zm18.45.36a4.66 4.66 0 0 0 4.88-4.81 4.7 4.7 0 0 0-4.88-4.85 4.7 4.7 0 0 0-4.87 4.84c0 1.41.46 2.57 1.37 3.47.9.9 2.08 1.35 3.5 1.35zm7.3-4.81c0 1.98-.67 3.6-2.02 4.86a7.43 7.43 0 0 1-5.28 1.9 7.4 7.4 0 0 1-5.25-1.9 6.35 6.35 0 0 1-2.03-4.86c0-1.99.67-3.61 2.03-4.87a7.42 7.42 0 0 1 5.25-1.88c2.16 0 3.91.63 5.27 1.9a6.33 6.33 0 0 1 2.04 4.85zm10.31-10.45c0-1 .1-1.62.28-1.89.19-.26.58-.4 1.19-.4.56 0 .93.11 1.12.33.18.21.27.73.27 1.56 0 .81-.09 1.31-.25 1.5-.17.17-.55.26-1.14.26-.6 0-1-.09-1.19-.27-.18-.18-.28-.54-.28-1.1zm3.77 16.04c0 1.17-.06 2.07-.2 2.68a3.87 3.87 0 0 1-.69 1.53 4.9 4.9 0 0 1-2.2 1.57c-.93.35-2.03.53-3.29.53-1.05 0-1.82-.1-2.3-.32-.5-.21-.75-.54-.75-.99a1 1 0 0 1 .36-.75c.23-.22.52-.33.84-.33.25 0 .64.03 1.17.1.53.07.93.1 1.2.1 1.35 0 2.31-.3 2.89-.93.57-.63.86-1.7.86-3.25v-10h-5.44c-.9 0-1.46-.07-1.69-.22-.23-.14-.34-.4-.34-.78 0-.33.1-.57.28-.73.18-.16.46-.25.83-.25h7.67a1 1 0 0 1 .59.16c.14.1.21.24.21.42V35.8zm8.11-5a4.23 4.23 0 0 0 1.36 3.1c.83.73 1.96 1.09 3.4 1.09 1.09 0 2.27-.29 3.55-.87a9.6 9.6 0 0 1 2.32-.87c.28 0 .51.09.7.27.18.17.28.39.28.65 0 .27-.1.51-.3.74-.2.22-.5.44-.93.65-.93.46-1.88.8-2.87 1.04-.99.25-1.97.37-2.94.37-2.12 0-3.81-.61-5.08-1.83a6.4 6.4 0 0 1-1.9-4.85c0-2.05.67-3.71 2.01-4.98a7.34 7.34 0 0 1 5.26-1.9c1.96 0 3.58.59 4.87 1.77a5.65 5.65 0 0 1 1.93 4.32c0 .52-.1.86-.33 1.04-.21.18-.8.26-1.77.26h-9.56zm.07-1.82h9.06c-.14-1.1-.6-1.99-1.38-2.66-.79-.68-1.75-1.01-2.9-1.01-1.22 0-2.26.32-3.1.97a4.6 4.6 0 0 0-1.68 2.7zm25.92-4.38v-.06c0-.3.09-.53.26-.67.18-.14.45-.22.82-.22.38 0 .65.11.79.34.14.22.22.68.22 1.37v2.6c0 .33-.1.6-.27.76-.18.18-.44.26-.8.26a1 1 0 0 1-.64-.21c-.18-.15-.4-.45-.66-.9a4.79 4.79 0 0 0-1.62-1.7 4.14 4.14 0 0 0-2.2-.58c-1.44 0-2.61.42-3.52 1.28a4.35 4.35 0 0 0-1.35 3.3c0 1.39.43 2.52 1.3 3.4a4.5 4.5 0 0 0 3.34 1.3 6.03 6.03 0 0 0 4.08-1.53c.6-.5 1.07-.74 1.42-.74.28 0 .52.09.7.27.18.18.27.41.27.7 0 .73-.7 1.48-2.08 2.25a9 9 0 0 1-4.42 1.15 6.97 6.97 0 0 1-5.02-1.94 6.42 6.42 0 0 1-2.01-4.82c0-1.93.66-3.54 2-4.84 1.33-1.3 3-1.94 5-1.94.71 0 1.42.1 2.13.29.7.19 1.46.48 2.26.88zm16.7-.06c.46 0 .8.08 1 .24.2.16.31.4.31.75 0 .33-.1.57-.29.73-.2.16-.49.25-.88.25h-5.63v4.64c0 1.52.2 2.52.6 3 .39.49 1.06.73 2.02.73.84 0 1.85-.25 3.03-.74 1.18-.49 1.9-.74 2.18-.74a.94.94 0 0 1 .93.96c0 .31-.11.58-.34.8-.22.23-.61.45-1.16.67-.9.36-1.73.62-2.45.79a9.2 9.2 0 0 1-2.06.25c-1.08 0-2-.18-2.73-.52a3.48 3.48 0 0 1-1.65-1.55c-.18-.33-.31-.71-.4-1.16-.07-.44-.11-1.13-.11-2.06v-5.07h-2.37c-.39 0-.67-.08-.84-.23-.18-.16-.27-.4-.27-.75 0-.38.12-.64.36-.78s.76-.2 1.55-.2h1.57v-3.6c0-.4.08-.69.26-.88.17-.19.43-.28.8-.28.4 0 .69.11.84.34.16.24.24.76.24 1.59v2.82h5.5z" id="project" fill="#000"/>
        <path d="M59.77 28.28h3.4c.44 0 .76.09.96.26.2.18.3.46.3.84 0 .37-.1.65-.28.85-.2.2-.47.3-.83.3h-7.84c-.36 0-.63-.1-.82-.3-.2-.2-.29-.48-.29-.85 0-.4.1-.67.31-.84.2-.17.56-.26 1.06-.26h1.52V13.96h-1c-.8 0-1.32-.08-1.55-.25-.23-.16-.34-.46-.34-.9 0-.37.1-.65.29-.85.19-.2.46-.3.82-.3h14.07c.36 0 .63.12.82.33.19.22.28.54.28.95v4.1c0 .37-.1.65-.28.84-.19.18-.46.27-.82.27-.44 0-.75-.11-.9-.34-.16-.24-.24-.76-.24-1.58v-2.27h-8.64v5.36h4.2v-.42c0-.77.08-1.3.22-1.56.15-.26.42-.4.8-.4.34 0 .58.1.74.3.15.21.23.53.23.98v4.04c0 .53-.07.9-.22 1.1-.14.2-.4.3-.75.3-.38 0-.65-.14-.8-.4a3.62 3.62 0 0 1-.22-1.56v-.46h-4.2v7.04zm27.27 0c.82 0 1.34.08 1.56.23.23.16.35.44.35.87s-.12.73-.35.9c-.22.16-.74.24-1.56.24h-10.4c-.38 0-.67-.1-.87-.28-.2-.2-.3-.48-.3-.86 0-.43.11-.71.35-.87.23-.15.75-.23 1.57-.23h3.6V13.96h-3.6c-.8 0-1.32-.08-1.56-.25-.24-.16-.36-.46-.36-.9 0-.39.1-.68.3-.86.2-.19.5-.28.9-.28H87.8c.38 0 .67.1.86.28.2.2.3.48.3.86 0 .44-.12.74-.36.9-.24.17-.76.25-1.55.25h-3.6v14.32h3.6zM98.2 13.81v6.43h3.29c1.48 0 2.6-.27 3.35-.8.74-.54 1.12-1.34 1.12-2.4 0-1.07-.37-1.87-1.1-2.41-.73-.54-1.82-.82-3.27-.82h-3.4zm0 14.47h1.08c.61 0 1.05.09 1.3.26.26.17.39.45.39.84 0 .42-.12.72-.34.89-.22.17-.64.25-1.25.25h-5.35c-.36 0-.63-.1-.82-.3-.2-.19-.29-.47-.29-.84 0-.4.1-.67.32-.84.21-.17.56-.26 1.05-.26h1.44V13.81h-.92c-.8 0-1.3-.07-1.54-.22-.23-.15-.35-.43-.35-.84 0-.36.1-.63.28-.81.18-.18.46-.27.83-.27h6.71c1.62 0 2.84.08 3.64.23a5.04 5.04 0 0 1 3.7 2.68c.4.78.61 1.62.61 2.53 0 1.21-.37 2.26-1.12 3.14a5.87 5.87 0 0 1-3.12 1.82c.27.15.52.34.74.55.21.21.42.47.62.77l3.2 4.9h.52c.6 0 1 .07 1.23.24.22.16.33.45.33.85 0 .37-.1.65-.28.85-.18.2-.45.3-.81.3h-1.8c-.52 0-1.03-.39-1.53-1.15a1.59 1.59 0 0 1-.14-.16l-3.05-4.63a6.95 6.95 0 0 0-1.55-1.82c-.41-.28-.95-.42-1.62-.42H98.2v5.93zm29.4 2.24h-13.87c-.38 0-.67-.1-.87-.28-.2-.2-.29-.48-.29-.86 0-.43.11-.71.34-.87.23-.15.75-.23 1.57-.23h1.02V13.96h-1.02c-.8 0-1.31-.08-1.55-.25-.24-.16-.36-.46-.36-.9 0-.39.1-.68.3-.86.2-.19.49-.28.9-.28h13.84c.36 0 .63.1.82.32.18.22.28.54.28.95v3.75c0 .55-.08.94-.24 1.15-.16.2-.45.31-.86.31-.44 0-.73-.11-.9-.34-.16-.24-.25-.76-.25-1.58v-2.27h-8.45v5.36h4.16v-.85c0-.57.08-.97.23-1.19.16-.22.42-.33.8-.33.38 0 .63.12.78.35.14.24.21.75.21 1.54v2.96c0 .79-.07 1.3-.22 1.52-.15.22-.41.34-.8.34-.38 0-.64-.13-.78-.39a3.4 3.4 0 0 1-.22-1.47v-.56h-4.16v7.04h8.45v-2.57c0-.82.09-1.34.25-1.58.17-.23.46-.35.9-.35.4 0 .69.11.85.33.16.22.25.63.25 1.23v4c0 .39-.1.68-.29.88-.2.2-.46.3-.81.3zm10.55-16.56v7.37h2.97c1.67 0 2.91-.3 3.74-.92.82-.61 1.24-1.54 1.24-2.78 0-1.22-.42-2.14-1.25-2.75-.83-.61-2.07-.92-3.73-.92h-2.97zm3.32 14.32c.52 0 .9.09 1.13.26.23.18.35.46.35.84 0 .42-.11.72-.33.89-.23.17-.65.25-1.28.25h-7.77c-.36 0-.63-.1-.83-.3-.19-.19-.28-.47-.28-.84s.1-.65.28-.83c.18-.18.47-.27.86-.27h2.05V13.96h-1.1c-.94 0-1.52-.08-1.75-.25-.23-.16-.34-.46-.34-.9 0-.37.1-.65.28-.85.2-.2.47-.3.83-.3h7.36c2.58 0 4.53.5 5.87 1.5 1.33 1 2 2.47 2 4.4 0 1.95-.66 3.4-1.99 4.4-1.32.98-3.28 1.47-5.88 1.47h-2.78v4.85h3.32zm24.88-4.16c0-.8.08-1.31.24-1.55.16-.23.46-.35.9-.35.39 0 .67.1.86.3.2.2.3.5.3.91v5.92c0 .37-.11.66-.31.86-.2.21-.48.31-.84.31h-14.85c-.38 0-.67-.1-.86-.28-.2-.2-.29-.48-.29-.86 0-.43.12-.71.35-.87.22-.15.74-.23 1.55-.23h1.98V13.96h-1.98c-.79 0-1.3-.08-1.54-.25-.24-.16-.36-.46-.36-.9 0-.39.1-.68.3-.86.2-.19.5-.28.91-.28h8.6c.38 0 .68.1.88.28.2.2.3.48.3.86 0 .44-.12.74-.36.9-.24.17-.76.25-1.56.25h-2.68v14.32h8.46v-4.16zm10.27-1.74h6.5l-3.41-8.42-3.09 8.42zm.81-8.42h-2.32c-.65 0-1.1-.09-1.36-.26-.26-.18-.39-.47-.39-.89 0-.43.12-.73.34-.9.23-.16.85-.24 1.87-.24h4.53c.59 0 .98.08 1.19.23.2.15.4.44.56.85l6.22 15.53h.27c.57 0 .96.08 1.17.24.22.16.32.45.32.86 0 .43-.1.73-.3.9-.2.16-.58.24-1.13.24h-4.32c-.8 0-1.32-.08-1.55-.24-.23-.17-.34-.47-.34-.9 0-.4.12-.69.37-.85.25-.17.72-.25 1.4-.25h1.48l-1.54-3.78h-8.07l-1.37 3.78H176c.7 0 1.18.08 1.43.25.26.16.38.45.38.85 0 .43-.11.73-.34.9-.23.16-.73.24-1.5.24h-4.18c-.68 0-1.13-.08-1.35-.24-.23-.17-.34-.47-.34-.9 0-.41.11-.7.34-.86.22-.16.65-.24 1.29-.24h.3l5.4-14.32zm27.03-1.77c.1-.28.25-.48.44-.6.2-.12.47-.18.83-.18.4 0 .67.1.83.3.16.18.24.57.24 1.17a123.11 123.11 0 0 0 .06 4.07c0 .5-.09.83-.26 1-.17.18-.47.27-.9.27-.7 0-1.16-.5-1.37-1.5l-.17-.68c-.2-.8-.69-1.44-1.45-1.95a4.77 4.77 0 0 0-2.69-.75c-1.87 0-3.38.68-4.51 2.06-1.14 1.37-1.7 3.21-1.7 5.52 0 2.31.57 4.15 1.72 5.53a5.65 5.65 0 0 0 4.56 2.05c.61 0 1.24-.08 1.87-.26a8.17 8.17 0 0 0 1.88-.78c.28-.15.68-.4 1.17-.76.5-.36.86-.53 1.07-.53.33 0 .6.1.83.32.23.22.35.49.35.8 0 .32-.13.63-.38.92-.25.3-.71.65-1.39 1.07a9.68 9.68 0 0 1-5.53 1.7 8.44 8.44 0 0 1-6.49-2.77c-1.7-1.85-2.56-4.22-2.56-7.1 0-2.85.87-5.22 2.6-7.1a8.46 8.46 0 0 1 6.51-2.83c.7 0 1.41.08 2.14.25.73.17 1.5.42 2.3.76zm20.84 18.33h-13.88c-.38 0-.67-.1-.87-.28-.2-.2-.29-.48-.29-.86 0-.43.11-.71.34-.87.23-.15.75-.23 1.57-.23h1.02V13.96h-1.02c-.8 0-1.31-.08-1.55-.25-.24-.16-.36-.46-.36-.9 0-.39.1-.68.3-.86.2-.19.49-.28.9-.28h13.84c.36 0 .63.1.82.32.18.22.28.54.28.95v3.75c0 .55-.08.94-.24 1.15-.16.2-.45.31-.86.31-.43 0-.73-.11-.9-.34-.16-.24-.24-.76-.24-1.58v-2.27h-8.46v5.36h4.16v-.85c0-.57.08-.97.23-1.19.16-.22.42-.33.8-.33.38 0 .63.12.78.35.14.24.21.75.21 1.54v2.96c0 .79-.07 1.3-.22 1.52-.15.22-.41.34-.8.34-.38 0-.64-.13-.78-.39a3.4 3.4 0 0 1-.22-1.47v-.56h-4.16v7.04h8.46v-2.57c0-.82.08-1.34.24-1.58.17-.23.47-.35.9-.35.4 0 .69.11.85.33.16.22.25.63.25 1.23v4c0 .39-.1.68-.29.88-.19.2-.46.3-.81.3z" id="FIREPLACE" fill="#D0021B"/>
      </g>
    </g>
  </g>
</svg>
