<svg width="47" height="56" viewBox="0 0 47 56" xmlns="http://www.w3.org/2000/svg">
  <g id="Page-6" fill="none" fill-rule="evenodd">
    <g id="BCM_MediaKit08" transform="translate(-567 -772)" fill="#A01D26">
      <g id="Group" transform="translate(567 772)">
        <path d="M44.87 48.49a.38.38 0 0 1-.38-.38V5.65c0-.2.17-.38.38-.38h.35c.2 0 .37-.17.37-.38V.58c0-.2-.17-.38-.37-.38H1.1C.89.2.7.37.7.58v4.31c0 .21.18.38.39.38h.34c.2 0 .38.18.38.38v42.46c0 .2-.17.38-.38.38H.38c-.2 0-.38.17-.38.38v1.66c0 .2.17.38.38.38h.94c.2 0 .38.17.38.38v4.33c0 .2.17.38.38.38H44.23c.2 0 .38-.17.38-.38v-4.33c0-.21.17-.38.38-.38h.94c.2 0 .38-.17.38-.38v-1.66c0-.21-.18-.38-.38-.38h-1.06zm-4.6-.38c0 .2-.16.38-.38.38H6.42a.38.38 0 0 1-.38-.38V5.27c0-.2.17-.38.38-.38h33.48c.22 0 .38.17.38.38V48.1z" id="Fill-33"/>
        <path d="M37.46 16.28c0-.2-.1-.5-.22-.67L31.9 7.92a.8.8 0 0 0-.58-.3l-21.58.04c-.2 0-.38.17-.38.37v37.16c0 .2.17.37.38.37l21.58.04a.8.8 0 0 0 .58-.3l5.35-7.7c.12-.16.22-.46.22-.67v-3.29c0-.2-.09-.52-.2-.69l-3.68-6.08a.67.67 0 0 1 0-.63l3.68-5.98c.1-.17.2-.48.2-.69v-3.29zm-4.08 19.66c0 .2-.1.51-.2.68l-3 4.47a.78.78 0 0 1-.58.3H13.4a.37.37 0 0 1-.38-.36V28.79c0-.2.17-.38.38-.37l15.86.12c.2 0 .47.14.58.31l3.33 4.82c.11.17.2.48.2.68v1.6zm0-17.23c0 .2-.1.51-.2.68l-3 4.47a.79.79 0 0 1-.58.31H13.4a.37.37 0 0 1-.38-.37V11.55c0-.2.17-.37.38-.36l15.86.13c.2 0 .47.14.58.3l3.33 4.83c.11.16.2.47.2.67v1.6z" id="Fill-35"/>
      </g>
    </g>
  </g>
</svg>
